<svg xmlns="http://www.w3.org/2000/svg" width="56" height="56">
  <defs>
 <radialGradient id="b" cx="48.744%" cy="50.721%" r="34.598%" fx="48.744%" fy="50.721%">
      <stop offset="0%" stop-color="#F1F5F9"/>
      <stop offset="100%" stop-color="#F1F5F9" stop-opacity="0"/>
    </radialGradient>
    <linearGradient id="a" x1="50%" x2="50%" y1="100%" y2="0%">
      <stop offset="0%" stop-color="#334155"/>
      <stop offset="100%" stop-color="#94A3B8" stop-opacity=".601"/>
    </linearGradient>
  </defs>
  <g fill="none" fill-rule="evenodd">
    <circle cx="28" cy="28" r="28" fill="url(#a)"/>
    <circle cx="28" cy="28" r="27" fill="#000000"/>
    <circle cx="28" cy="28" r="27" fill="url(#b)" opacity=".079"/>
<svg xmlns="http://www.w3.org/2000/svg" viewBox="0 0 20 20" fill="#E2E8F0" x="13" y="13" width="30" height="30" className="w-5 h-5">
  <path fillRule="evenodd" d="M4.606 12.97a.75.75 0 01-.134 1.051 2.494 2.494 0 00-.93 2.437 2.494 2.494 0 002.437-.93.75.75 0 111.186.918 3.995 3.995 0 01-4.482 1.332.75.75 0 01-.461-.461 3.994 3.994 0 011.332-4.482.75.75 0 011.052.134z" clipRule="evenodd" />
  <path fillRule="evenodd" d="M5.752 12A13.07 13.07 0 008 14.248v4.002c0 .414.336.75.75.75a5 5 0 004.797-6.414 12.984 12.984 0 005.45-10.848.75.75 0 00-.735-.735 12.984 12.984 0 00-10.849 5.45A5 5 0 001 11.25c.001.414.337.75.751.75h4.002zM13 9a2 2 0 100-4 2 2 0 000 4z" clipRule="evenodd" />
</svg>
  </g>
</svg>