<svg xmlns="http://www.w3.org/2000/svg" width="56" height="56">
  <defs>
 <radialGradient id="b" cx="48.744%" cy="50.721%" r="34.598%" fx="48.744%" fy="50.721%">
      <stop offset="0%" stop-color="#F1F5F9"/>
      <stop offset="100%" stop-color="#F1F5F9" stop-opacity="0"/>
    </radialGradient>
    <linearGradient id="a" x1="50%" x2="50%" y1="100%" y2="0%">
      <stop offset="0%" stop-color="#334155"/>
      <stop offset="100%" stop-color="#94A3B8" stop-opacity=".601"/>
    </linearGradient>
  </defs>
  <g fill="none" fill-rule="evenodd">
    <circle cx="28" cy="28" r="28" fill="url(#a)"/>
    <circle cx="28" cy="28" r="27" fill="#000000"/>
    <circle cx="28" cy="28" r="27" fill="url(#b)" opacity=".079"/>
  
<svg xmlns="http://www.w3.org/2000/svg" viewBox="0 0 20 20" fill="#E2E8F0" x="13" y="13" width="30" height="30" className="w-5 h-5">
  <path d="M10 9a3 3 0 100-6 3 3 0 000 6zM6 8a2 2 0 11-4 0 2 2 0 014 0zM1.49 15.326a.78.78 0 01-.358-.442 3 3 0 014.308-3.516 6.484 6.484 0 00-1.905 3.959c-.023.222-.014.442.025.654a4.97 4.97 0 01-2.07-.655zM16.44 15.98a4.97 4.97 0 002.07-.654.78.78 0 00.357-.442 3 3 0 00-4.308-3.517 6.484 6.484 0 011.907 3.96 2.32 2.32 0 01-.026.654zM18 8a2 2 0 11-4 0 2 2 0 014 0zM5.304 16.19a.844.844 0 01-.277-.71 5 5 0 019.947 0 .843.843 0 01-.277.71A6.975 6.975 0 0110 18a6.974 6.974 0 01-4.696-1.81z" />
</svg>



  </g>
</svg>
