<svg xmlns="http://www.w3.org/2000/svg" width="56" height="56">
  <defs>
 <radialGradient id="b" cx="48.744%" cy="50.721%" r="34.598%" fx="48.744%" fy="50.721%">
      <stop offset="0%" stop-color="#F1F5F9"/>
      <stop offset="100%" stop-color="#F1F5F9" stop-opacity="0"/>
    </radialGradient>
    <linearGradient id="a" x1="50%" x2="50%" y1="100%" y2="0%">
      <stop offset="0%" stop-color="#334155"/>
      <stop offset="100%" stop-color="#94A3B8" stop-opacity=".601"/>
    </linearGradient>
  </defs>
  <g fill="none" fill-rule="evenodd">
    <circle cx="28" cy="28" r="28" fill="url(#a)"/>
    <circle cx="28" cy="28" r="27" fill="#000000"/>
    <circle cx="28" cy="28" r="27" fill="url(#b)" opacity=".079"/>
    <!-- <svg xmlns="http://www.w3.org/2000/svg" viewBox="0 0 20 20" fill="#E2E8F0" x="13" y="13" width="30" height="30">
  <path fill-rule="evenodd" d="M10 18a8 8 0 100-16 8 8 0 000 16zm3.536-4.464a.75.75 0 10-1.061-1.061 3.5 3.5 0 01-4.95 0 .75.75 0 00-1.06 1.06 5 5 0 007.07 0zM9 8.5c0 .828-.448 1.5-1 1.5s-1-.672-1-1.5S7.448 7 8 7s1 .672 1 1.5zm3 1.5c.552 0 1-.672 1-1.5S12.552 7 12 7s-1 .672-1 1.5.448 1.5 1 1.5z" clip-rule="evenodd" />
</svg> -->
<svg xmlns="http://www.w3.org/2000/svg" viewBox="0 0 20 20" fill="#E2E8F0" x="13" y="13" width="30" height="30" className="w-5 h-5">
  <path d="M1 13.75V7.182L9.818 16H3.25A2.25 2.25 0 011 13.75zM13 6.25v6.568L4.182 4h6.568A2.25 2.25 0 0113 6.25zM19 4.75a.75.75 0 00-1.28-.53l-3 3a.75.75 0 00-.22.53v4.5c0 .199.079.39.22.53l3 3a.75.75 0 001.28-.53V4.75zM2.28 4.22a.75.75 0 00-1.06 1.06l10.5 10.5a.75.75 0 101.06-1.06L2.28 4.22z" />
</svg>




  </g>
</svg>
